<svg id="visual" viewBox="0 0 900 100" width="900" height="100" xmlns="http://www.w3.org/2000/svg" xmlns:xlink="http://www.w3.org/1999/xlink" version="1.1"><rect x="0" y="0" width="900" height="100" fill="#F1A104"></rect><path d="M0 59L15 57.2C30 55.3 60 51.7 90 52.2C120 52.7 150 57.3 180 54.7C210 52 240 42 270 36.8C300 31.7 330 31.3 360 31.2C390 31 420 31 450 36.3C480 41.7 510 52.3 540 59C570 65.7 600 68.3 630 67.5C660 66.7 690 62.3 720 57C750 51.7 780 45.3 810 46.5C840 47.7 870 56.3 885 60.7L900 65L900 101L885 101C870 101 840 101 810 101C780 101 750 101 720 101C690 101 660 101 630 101C600 101 570 101 540 101C510 101 480 101 450 101C420 101 390 101 360 101C330 101 300 101 270 101C240 101 210 101 180 101C150 101 120 101 90 101C60 101 30 101 15 101L0 101Z" fill="#00743F" stroke-linecap="round" stroke-linejoin="miter"></path></svg>