<svg id="visual" viewBox="0 0 900 100" width="900" height="100" xmlns="http://www.w3.org/2000/svg" xmlns:xlink="http://www.w3.org/1999/xlink" version="1.1"><rect x="0" y="0" width="900" height="100" fill="#00743F"></rect><path d="M0 67L15 64.5C30 62 60 57 90 55.2C120 53.3 150 54.7 180 53.5C210 52.3 240 48.7 270 47.2C300 45.7 330 46.3 360 51.5C390 56.7 420 66.3 450 64.2C480 62 510 48 540 40C570 32 600 30 630 37.2C660 44.3 690 60.7 720 64C750 67.3 780 57.7 810 56.5C840 55.3 870 62.7 885 66.3L900 70L900 101L885 101C870 101 840 101 810 101C780 101 750 101 720 101C690 101 660 101 630 101C600 101 570 101 540 101C510 101 480 101 450 101C420 101 390 101 360 101C330 101 300 101 270 101C240 101 210 101 180 101C150 101 120 101 90 101C60 101 30 101 15 101L0 101Z" fill="#1E6587" stroke-linecap="round" stroke-linejoin="miter"></path></svg>